<svg width="278" height="75" viewBox="0 0 278 75" fill="none" xmlns="http://www.w3.org/2000/svg">
<path fill-rule="evenodd" clip-rule="evenodd" d="M25.132 64.6874C31.1382 64.6874 36.441 63.5074 41.0403 61.1474C45.6396 58.7872 49.2109 55.499 51.754 51.2826C54.2972 47.0664 55.5687 42.2534 55.5687 36.8438C55.5687 31.434 54.2972 26.621 51.754 22.4048C49.2109 18.1884 45.6396 14.9002 41.0403 12.5401C36.441 10.18 31.1382 9 25.132 9H2V64.6874H25.132ZM24.8074 59.596H8.00618V14.0914H24.8074C29.7855 14.0914 34.1412 15.0593 37.8748 16.9951C41.6083 18.9309 44.5031 21.6092 46.5595 25.03C48.6157 28.4508 49.6437 32.3888 49.6437 36.8438C49.6437 41.2988 48.6157 45.2366 46.5595 48.6574C44.5031 52.0782 41.6083 54.7566 37.8748 56.6924C34.1412 58.6282 29.7855 59.596 24.8074 59.596ZM96.3946 62.3406C93.0939 64.1704 89.3873 65.0852 85.2749 65.0852C81.1626 65.0852 77.4562 64.1704 74.1555 62.3406C70.8548 60.511 68.2575 57.9784 66.3637 54.7432C64.4698 51.5082 63.5228 47.8486 63.5228 43.7648C63.5228 39.6812 64.4698 36.0216 66.3637 32.7864C68.2575 29.5514 70.8548 27.0322 74.1555 25.229C77.4562 23.4256 81.1626 22.524 85.2749 22.524C89.3873 22.524 93.0939 23.4256 96.3946 25.229C99.6953 27.0322 102.279 29.5514 104.146 32.7864C106.012 36.0216 106.946 39.6812 106.946 43.7648C106.946 47.8486 106.012 51.5082 104.146 54.7432C102.279 57.9784 99.6953 60.511 96.3946 62.3406ZM85.2749 60.0734C82.2448 60.0734 79.5258 59.3972 77.1178 58.0448C74.71 56.6924 72.8162 54.7698 71.4363 52.2772C70.0566 49.7844 69.3666 46.947 69.3666 43.7648C69.3666 40.5828 70.0566 37.7454 71.4363 35.2526C72.8162 32.76 74.71 30.8374 77.1178 29.485C79.5258 28.1326 82.2448 27.4564 85.2749 27.4564C88.3051 27.4564 91.024 28.1326 93.432 29.485C95.8398 30.8374 97.7202 32.76 99.0729 35.2526C100.426 37.7454 101.102 40.5828 101.102 43.7648C101.102 46.947 100.426 49.7844 99.0729 52.2772C97.7202 54.7698 95.8398 56.6924 93.432 58.0448C91.024 59.3972 88.3051 60.0734 85.2749 60.0734ZM146.23 62.977C143.308 64.3826 140.034 65.0852 136.409 65.0852C132.188 65.0852 128.414 64.1836 125.086 62.3804C121.758 60.5772 119.148 58.0448 117.254 54.783C115.36 51.5214 114.413 47.8486 114.413 43.7648C114.413 39.6812 115.36 36.0216 117.254 32.7864C119.148 29.5514 121.758 27.0322 125.086 25.229C128.414 23.4256 132.188 22.524 136.409 22.524C140.088 22.524 143.375 23.2268 146.27 24.6322C149.165 26.0376 151.451 28.0928 153.129 30.7976L148.827 33.6616C147.42 31.5932 145.634 30.0418 143.47 29.0076C141.306 27.9736 138.952 27.4564 136.409 27.4564C133.324 27.4564 130.551 28.1326 128.089 29.485C125.627 30.8374 123.706 32.76 122.327 35.2526C120.947 37.7454 120.257 40.5828 120.257 43.7648C120.257 47 120.947 49.8508 122.327 52.3168C123.706 54.783 125.627 56.6924 128.089 58.0448C130.551 59.3972 133.324 60.0734 136.409 60.0734C138.952 60.0734 141.306 59.5696 143.47 58.5618C145.634 57.5542 147.42 56.0162 148.827 53.9478L153.129 56.8116C151.451 59.5164 149.152 61.5716 146.23 62.977ZM176.504 65.0852C178.235 65.0852 179.886 64.8334 181.455 64.3294C183.024 63.8256 184.35 63.0964 185.432 62.1418L183.403 58.0846C181.78 59.5164 179.669 60.2324 177.072 60.2324C174.691 60.2324 172.879 59.5828 171.634 58.2834C170.39 56.984 169.767 55.088 169.767 52.5954V27.6156H182.672V22.8422H169.767V13.6937H164.005V52.9136C164.005 56.7852 165.087 59.7816 167.251 61.903C169.416 64.0246 172.5 65.0852 176.504 65.0852ZM224.472 62.3406C221.171 64.1704 217.464 65.0852 213.353 65.0852C209.24 65.0852 205.534 64.1704 202.233 62.3406C198.933 60.511 196.335 57.9784 194.441 54.7432C192.548 51.5082 191.601 47.8486 191.601 43.7648C191.601 39.6812 192.548 36.0216 194.441 32.7864C196.335 29.5514 198.933 27.0322 202.233 25.229C205.534 23.4256 209.24 22.524 213.353 22.524C217.464 22.524 221.171 23.4256 224.472 25.229C227.772 27.0322 230.357 29.5514 232.223 32.7864C234.091 36.0216 235.024 39.6812 235.024 43.7648C235.024 47.8486 234.091 51.5082 232.223 54.7432C230.357 57.9784 227.772 60.511 224.472 62.3406ZM213.353 60.0734C210.322 60.0734 207.604 59.3972 205.196 58.0448C202.788 56.6924 200.894 54.7698 199.514 52.2772C198.134 49.7844 197.444 46.947 197.444 43.7648C197.444 40.5828 198.134 37.7454 199.514 35.2526C200.894 32.76 202.788 30.8374 205.196 29.485C207.604 28.1326 210.322 27.4564 213.353 27.4564C216.382 27.4564 219.102 28.1326 221.509 29.485C223.918 30.8374 225.798 32.76 227.15 35.2526C228.504 37.7454 229.18 40.5828 229.18 43.7648C229.18 46.947 228.504 49.7844 227.15 52.2772C225.798 54.7698 223.918 56.6924 221.509 58.0448C219.102 59.3972 216.382 60.0734 213.353 60.0734ZM271.182 61.8634C268.07 64.0112 263.756 65.0852 258.237 65.0852C254.773 65.0852 251.46 64.5946 248.294 63.6136C245.129 62.6324 242.653 61.3992 240.868 59.9142L243.464 55.4592C245.251 56.8382 247.496 57.9652 250.202 58.8402C252.907 59.7154 255.72 60.153 258.644 60.153C262.539 60.153 265.421 59.5562 267.287 58.363C269.153 57.1696 270.088 55.4858 270.088 53.3114C270.088 51.7732 269.573 50.5668 268.545 49.6916C267.517 48.8166 266.219 48.1536 264.65 47.7028C263.08 47.252 260.997 46.8144 258.399 46.3902C254.937 45.7538 252.15 45.104 250.04 44.441C247.929 43.7782 246.13 42.6512 244.641 41.06C243.153 39.469 242.411 37.268 242.411 34.4572C242.411 30.9568 243.897 28.0928 246.874 25.8654C249.849 23.6378 253.989 22.524 259.293 22.524C262.052 22.524 264.811 22.882 267.571 23.598C270.33 24.314 272.602 25.2554 274.389 26.4222L271.872 30.9568C268.354 28.5702 264.162 27.3768 259.293 27.3768C255.613 27.3768 252.839 28.0132 250.973 29.2862C249.105 30.559 248.172 32.2296 248.172 34.298C248.172 35.889 248.701 37.162 249.756 38.1166C250.811 39.0712 252.121 39.774 253.691 40.2248C255.26 40.6756 257.425 41.1396 260.184 41.617C263.594 42.2534 266.327 42.8898 268.381 43.5262C270.438 44.1626 272.198 45.2498 273.658 46.788C275.119 48.326 275.849 50.4474 275.849 53.1522C275.849 56.8116 274.294 59.7154 271.182 61.8634Z" fill="#051022"/>
</svg>
